<svg xmlns="http://www.w3.org/2000/svg" viewBox="0 0 219.938 185.972">
  <path d="M218.91,175.181L116.005,3.434c-2.744-4.579-9.329-4.579-12.073,0L1.027,175.181c-2.84,4.74.544,10.791,6.036,10.791h205.81c5.492,0,8.877-6.051,6.036-10.791ZM118.892,156.51c0,1.003-.813,1.816-1.816,1.816h-14.216c-1.003,0-1.816-.813-1.816-1.816v-13.579c0-1.003.813-1.816,1.816-1.816h14.216c1.003,0,1.816.813,1.816,1.816v13.579ZM117.258,128.418c-.036.976-.838,1.749-1.814,1.749h-10.95c-.977,0-1.778-.773-1.814-1.749l-2.096-56.71c-.038-1.028.785-1.883,1.814-1.883h15.143c1.029,0,1.852.854,1.814,1.883l-2.096,56.71Z"/>
</svg>